<?xml version="1.0" encoding="utf-8"?>
<!-- Generator: Adobe Illustrator 19.0.1, SVG Export Plug-In . SVG Version: 6.00 Build 0)  -->
<svg version="1.1" xmlns="http://www.w3.org/2000/svg" xmlns:xlink="http://www.w3.org/1999/xlink" x="0px" y="0px"
	 viewBox="0 0 1214.6 1188" enable-background="new 0 0 1214.6 1188" xml:space="preserve">
<g id="Layer_2_xA0_Image_1_">
</g>
<g id="AQ_Outline_1_">
	<g id="Rectangle_1_copy">
		<g>
			<polygon fill="#00AEEF" points="970.6,541.9 949.3,520.6 948.7,521.1 948.7,521.1 947.3,522.5 968.6,543.8 969.2,543.3 
				969.2,543.3 			"/>
		</g>
	</g>
	<g id="Rectangle_1_copy_2">
		<g>
			<polygon fill="#00AEEF" points="970.7,731.1 970.7,731.1 969.2,729.6 947,751.8 947.6,752.4 947.6,752.4 949.1,753.8 
				971.3,731.7 			"/>
		</g>
	</g>
	<g id="Shape_1_copy_246">
		<g>
			<rect x="147.4" y="243.8" fill="#00AEEF" width="1.9" height="145.7"/>
		</g>
	</g>
	<g id="Shape_1_copy_231">
		<g>
			<rect x="207.8" y="279.4" fill="#00AEEF" width="1.9" height="92.4"/>
		</g>
	</g>
	<g id="Shape_1_copy_252">
		<g>
			<rect x="112.1" y="236.2" fill="#00AEEF" width="25.4" height="1.9"/>
		</g>
	</g>
	<g id="Shape_1_copy_254">
		<g>
			<rect x="113" y="344.2" fill="#00AEEF" width="25.4" height="1.9"/>
		</g>
	</g>
	<g id="Shape_1_copy_248">
		<g>
			<rect x="148.3" y="387.6" fill="#00AEEF" width="60.5" height="1.9"/>
		</g>
	</g>
	<g id="Shape_1_copy_234">
		<g>
			<rect x="207.8" y="224.9" fill="#00AEEF" width="1.9" height="55.2"/>
		</g>
	</g>
	<g id="Shape_1_copy_235">
		<g>
			<rect x="186.5" y="224.9" fill="#00AEEF" width="1.9" height="19.9"/>
		</g>
	</g>
	<g id="Shape_1_copy_249">
		<g>
			<rect x="207.8" y="331.7" fill="#00AEEF" width="1.9" height="57.8"/>
		</g>
	</g>
	<g id="Shape_1_copy_236">
		<g>
			<rect x="188.4" y="224.9" fill="#00AEEF" width="20.4" height="1.9"/>
		</g>
	</g>
	<g id="Shape_1_copy_237">
		<g>
			<rect x="136.6" y="236.2" fill="#00AEEF" width="1.9" height="109.4"/>
		</g>
	</g>
	<g id="Shape_1_copy_239">
		<g>
			<rect x="169" y="243.8" fill="#00AEEF" width="19.4" height="1.9"/>
		</g>
	</g>
	<g id="Shape_1_copy_247">
		<g>
			<rect x="148.3" y="243.8" fill="#00AEEF" width="21.4" height="1.9"/>
		</g>
	</g>
	<g id="Shape_1_copy_75">
		<g>
			<rect x="487.9" y="956.9" fill="#00AEEF" width="1.9" height="86.4"/>
		</g>
	</g>
	<g id="Shape_1_copy_89">
		<g>
			<rect x="565.7" y="956.9" fill="#00AEEF" width="1.9" height="90.2"/>
		</g>
	</g>
	<g id="Shape_1_copy_122">
		<g>
			<rect x="664.6" y="1046.6" fill="#00AEEF" width="80.6" height="1.9"/>
		</g>
	</g>
	<g id="Shape_1_copy_92">
		<g>
			<rect x="487.9" y="1042.3" fill="#00AEEF" width="20.2" height="1.9"/>
		</g>
	</g>
	<g id="Shape_1_copy_97">
		<g>
			<rect x="227.3" y="1042.3" fill="#00AEEF" width="260.6" height="1.9"/>
		</g>
	</g>
	<g id="Shape_1_copy_120">
		<g>
			<rect x="565.7" y="1046.6" fill="#00AEEF" width="100.8" height="1.9"/>
		</g>
	</g>
	<g id="Shape_1_copy_98">
		<g>
			<rect x="378.2" y="956.9" fill="#00AEEF" width="1.9" height="86.4"/>
		</g>
	</g>
	<g id="Shape_1_copy_116">
		<g>
			<rect x="325.7" y="956.9" fill="#00AEEF" width="1.9" height="86.6"/>
		</g>
	</g>
	<g id="Shape_1_copy_99">
		<g>
			<rect x="745.2" y="959.5" fill="#00AEEF" width="1.9" height="89"/>
		</g>
	</g>
	<g id="Shape_1_copy_123">
		<g>
			<rect x="936.7" y="959.5" fill="#00AEEF" width="1.9" height="85.9"/>
		</g>
	</g>
	<g id="Shape_1_copy_125">
		<g>
			<rect x="912.7" y="1043.5" fill="#00AEEF" width="56.6" height="1.9"/>
		</g>
	</g>
	<g id="Shape_1_copy_124">
		<g>
			<rect x="853.2" y="1043.5" fill="#00AEEF" width="84" height="1.9"/>
		</g>
	</g>
	<g id="Shape_1_copy_109">
		<g>
			<rect x="746.2" y="1043.5" fill="#00AEEF" width="109.9" height="1.9"/>
		</g>
	</g>
	<g id="Shape_1_copy_100">
		<g>
			<rect x="855.1" y="959" fill="#00AEEF" width="1.9" height="86.4"/>
		</g>
	</g>
	<g id="Shape_1_copy_101">
		<g>
			<rect x="968.4" y="959" fill="#00AEEF" width="2.6" height="86.4"/>
		</g>
	</g>
	<g id="Shape_1_copy_102">
		<g>
			<rect x="968.4" y="1043.5" fill="#00AEEF" width="94.6" height="1.9"/>
		</g>
	</g>
	<g id="Shape_1_copy_103">
		<g>
			<rect x="969.6" y="1012.6" fill="#00AEEF" width="93.4" height="1.9"/>
		</g>
	</g>
	<g id="Shape_1_copy_104">
		<g>
			<rect x="969.6" y="927.6" fill="#00AEEF" width="93.4" height="1.9"/>
		</g>
	</g>
	<g id="Shape_1_copy_105">
		<g>
			<rect x="969.6" y="841.2" fill="#00AEEF" width="93.4" height="1.9"/>
		</g>
	</g>
	<g id="Shape_1_copy_106">
		<g>
			<rect x="970.6" y="730.1" fill="#00AEEF" width="93.4" height="1.9"/>
		</g>
	</g>
	<g id="Shape_1_copy_160">
		<g>
			<rect x="1062" y="646.3" fill="#00AEEF" width="1.9" height="399.1"/>
		</g>
	</g>
	<g id="Shape_1_copy_163">
		<g>
			<rect x="1030.1" y="746.4" fill="#00AEEF" width="1.9" height="76.3"/>
		</g>
	</g>
	<g id="Shape_1_copy_164">
		<g>
			<rect x="1030.3" y="820.8" fill="#00AEEF" width="32.4" height="1.9"/>
		</g>
	</g>
	<g id="Shape_1_copy_224">
		<g>
			<rect x="1100.2" y="799.2" fill="#00AEEF" width="21.1" height="1.9"/>
		</g>
	</g>
	<g id="Shape_1_copy_229">
		<g>
			<rect x="1100.6" y="405.6" fill="#00AEEF" width="19.7" height="1.9"/>
		</g>
	</g>
	<g id="Shape_1_copy_165">
		<g>
			<rect x="1030.1" y="746.4" fill="#00AEEF" width="32.6" height="1.9"/>
		</g>
	</g>
	<g id="Shape_1_copy_161">
		<g>
			<rect x="1062" y="496.6" fill="#00AEEF" width="1.9" height="151.9"/>
		</g>
	</g>
	<g id="Shape_1_copy_107">
		<g>
			<rect x="969.6" y="646.3" fill="#00AEEF" width="93.4" height="1.9"/>
		</g>
	</g>
	<g id="Shape_1_copy_108">
		<g>
			<rect x="969.6" y="560.2" fill="#00AEEF" width="94.3" height="1.9"/>
		</g>
	</g>
	<g id="Shape_1_copy_93">
		<g>
			<rect x="506.2" y="1042.3" fill="#00AEEF" width="1.9" height="6.2"/>
		</g>
	</g>
	<g id="Shape_1_copy_95">
		<g>
			<rect x="550.6" y="1042.3" fill="#00AEEF" width="1.9" height="6.2"/>
		</g>
	</g>
	<g id="Shape_1_copy_96">
		<g>
			<rect x="551.8" y="1042.3" fill="#00AEEF" width="15.8" height="1.9"/>
		</g>
	</g>
	<g id="Shape_1_copy_94">
		<g>
			<rect x="507.6" y="1046.6" fill="#00AEEF" width="44.9" height="1.9"/>
		</g>
	</g>
	<g id="Shape_1_copy_90">
		<g>
			<rect x="636.5" y="956.9" fill="#00AEEF" width="1.9" height="90.7"/>
		</g>
	</g>
	<g id="Shape_1_copy_91">
		<g>
			<rect x="664.6" y="956.9" fill="#00AEEF" width="1.9" height="90.7"/>
		</g>
	</g>
	<g id="Shape_1_copy_192">
		<g>
			<rect x="169.9" y="87.8" fill="#00AEEF" width="1.7" height="21.8"/>
		</g>
	</g>
	<g id="Shape_1_copy_193">
		<g>
			<rect x="206.9" y="87.8" fill="#00AEEF" width="1.7" height="21.8"/>
		</g>
	</g>
	<g id="Shape_1_copy_203">
		<g>
			<rect x="127.2" y="87.8" fill="#00AEEF" width="1.7" height="21.8"/>
		</g>
	</g>
	<g id="Shape_1_copy_204">
		<g>
			<rect x="127.2" y="108.5" fill="#00AEEF" width="44.4" height="1.7"/>
		</g>
	</g>
	<g id="Shape_1_copy_205">
		<g>
			<rect x="206.9" y="108.5" fill="#00AEEF" width="72" height="1.7"/>
		</g>
	</g>
	<g id="Shape_1_copy_206">
		<g>
			<rect x="278.9" y="108.5" fill="#00AEEF" width="72" height="1.7"/>
		</g>
	</g>
	<g id="Shape_1_copy_207">
		<g>
			<rect x="349.7" y="108.5" fill="#00AEEF" width="72" height="1.7"/>
		</g>
	</g>
	<g id="Shape_1_copy_212">
		<g>
			<rect x="444" y="108.5" fill="#00AEEF" width="63.1" height="1.7"/>
		</g>
	</g>
	<g id="Shape_1_copy_219">
		<g>
			<rect x="895.2" y="57.6" fill="#00AEEF" width="207.8" height="1.7"/>
		</g>
	</g>
	<g id="Shape_1_copy_215">
		<g>
			<rect x="895.2" y="58.6" fill="#00AEEF" width="1.7" height="29.5"/>
		</g>
	</g>
	<g id="Shape_1_copy_218">
		<g>
			<rect x="1101.4" y="58.6" fill="#00AEEF" width="1.7" height="29.5"/>
		</g>
	</g>
	<g id="Shape_1_copy_209">
		<g>
			<rect x="420" y="87.8" fill="#00AEEF" width="1.7" height="22.3"/>
		</g>
	</g>
	<g id="Shape_1_copy_210">
		<g>
			<rect x="442.3" y="87.8" fill="#00AEEF" width="1.7" height="22.3"/>
		</g>
	</g>
	<g id="Shape_1_copy_211">
		<g>
			<rect x="506.9" y="87.8" fill="#00AEEF" width="1.7" height="22.3"/>
		</g>
	</g>
	<g id="Shape_1_copy_158">
		<g>
			<rect x="378.7" y="153.8" fill="#00AEEF" width="1.7" height="97"/>
		</g>
	</g>
	<g id="Shape_1_copy_141">
		<g>
			<rect x="228.2" y="152.9" fill="#00AEEF" width="326.6" height="1.7"/>
		</g>
	</g>
	<g id="Shape_1_copy">
		<g>
			<rect x="227.5" y="366.7" fill="#00AEEF" width="29.5" height="1.9"/>
		</g>
	</g>
	<g id="Shape_1_copy_2">
		<g>
			<rect x="255.1" y="366.7" fill="#00AEEF" width="1.9" height="108.5"/>
		</g>
	</g>
	<g id="Shape_1_copy_3">
		<g>
			<rect x="227.5" y="473.3" fill="#00AEEF" width="27.6" height="1.9"/>
		</g>
	</g>
	<g id="Shape_1_copy_23">
		<g>
			<rect x="202.3" y="517" fill="#00AEEF" width="2.2" height="175"/>
		</g>
	</g>
	<g id="Shape_1_copy_25">
		<g>
			<rect x="87.1" y="529.9" fill="#00AEEF" width="2.2" height="148.1"/>
		</g>
	</g>
	<g id="Shape_1_copy_48">
		<g>
			<rect x="96.5" y="517" fill="#00AEEF" width="105.8" height="2.2"/>
		</g>
	</g>
	<g id="Shape_1_copy_49">
		<g>
			<rect x="87.1" y="529.9" fill="#00AEEF" width="11.5" height="2.2"/>
		</g>
	</g>
	<g id="Shape_1_copy_50">
		<g>
			<rect x="96.5" y="518.2" fill="#00AEEF" width="2.2" height="14.2"/>
		</g>
	</g>
	<g id="Shape_1_copy_51">
		<g>
			<rect x="96.5" y="676.8" fill="#00AEEF" width="2.2" height="13.7"/>
		</g>
	</g>
	<g id="Shape_1_copy_52">
		<g>
			<rect x="87.1" y="676.8" fill="#00AEEF" width="11.5" height="2.2"/>
		</g>
	</g>
	<g id="Shape_1_copy_55">
		<g>
			<rect x="97" y="711.1" fill="#00AEEF" width="31.2" height="2.2"/>
		</g>
	</g>
	<g id="Shape_1_copy_169">
		<g>
			<rect x="128.2" y="711.1" fill="#00AEEF" width="33.4" height="2.2"/>
		</g>
	</g>
	<g id="Shape_1_copy_170">
		<g>
			<rect x="161.5" y="711.1" fill="#00AEEF" width="42" height="2.2"/>
		</g>
	</g>
	<g id="Shape_1_copy_56">
		<g>
			<rect x="96.5" y="690.5" fill="#00AEEF" width="2.2" height="22.8"/>
		</g>
	</g>
	<g id="Shape_1_copy_171">
		<g>
			<rect x="202.3" y="690.5" fill="#00AEEF" width="2.2" height="22.8"/>
		</g>
	</g>
	<g id="Shape_1_copy_27">
		<g>
			<rect x="228.7" y="733.4" fill="#00AEEF" width="28.3" height="2.4"/>
		</g>
	</g>
	<g id="Shape_1_copy_30">
		<g>
			<rect x="227.3" y="840" fill="#00AEEF" width="28.1" height="2.4"/>
		</g>
	</g>
	<g id="Shape_1_copy_31">
		<g>
			<rect x="227.3" y="956.9" fill="#00AEEF" width="743.8" height="2.6"/>
		</g>
	</g>
	<g id="Shape_1_copy_32">
		<g>
			<rect x="229.2" y="935.3" fill="#00AEEF" width="720.2" height="2.6"/>
		</g>
	</g>
	<g id="Shape_1_copy_33">
		<g>
			<rect x="946.8" y="751.9" fill="#00AEEF" width="2.6" height="184.8"/>
		</g>
	</g>
	<g id="Shape_1_copy_34">
		<g>
			<rect x="968.4" y="538.8" fill="#00AEEF" width="2.6" height="418.1"/>
		</g>
	</g>
	<g id="Shape_1_copy_35">
		<g>
			<rect x="229.2" y="249.4" fill="#00AEEF" width="246.5" height="2.2"/>
		</g>
	</g>
	<g id="Shape_1_copy_36">
		<g>
			<rect x="447.6" y="249.4" fill="#00AEEF" width="417.8" height="2.2"/>
		</g>
	</g>
	<g id="Shape_1_copy_37">
		<g>
			<rect x="859.4" y="249.4" fill="#00AEEF" width="109.9" height="2.2"/>
		</g>
	</g>
	<g id="Shape_1_copy_39">
		<g>
			<rect x="968.6" y="196.3" fill="#00AEEF" width="2.6" height="347.8"/>
		</g>
	</g>
	<g id="Shape_1_copy_44">
		<g>
			<rect x="853.9" y="197.3" fill="#00AEEF" width="2.4" height="53"/>
		</g>
	</g>
	<g id="Shape_1_copy_45">
		<g>
			<rect x="853.9" y="196.3" fill="#00AEEF" width="82.8" height="2.4"/>
		</g>
	</g>
	<g id="Shape_1_copy_47">
		<g>
			<rect x="853.9" y="155.5" fill="#00AEEF" width="2.4" height="48"/>
		</g>
	</g>
	<g id="Shape_1_copy_143">
		<g>
			<rect x="936.5" y="196.3" fill="#00AEEF" width="125.5" height="2.4"/>
		</g>
	</g>
	<g id="Shape_1_copy_150">
		<g>
			<rect x="1021" y="344.4" fill="#00AEEF" width="43" height="2.4"/>
		</g>
	</g>
	<g id="Shape_1_copy_152">
		<g>
			<rect x="1061.5" y="278.4" fill="#00AEEF" width="2.4" height="218.9"/>
		</g>
	</g>
	<g id="Shape_1_copy_153">
		<g>
			<rect x="1061.5" y="153.1" fill="#00AEEF" width="2.4" height="125.3"/>
		</g>
	</g>
	<g id="Shape_1_copy_157">
		<g>
			<rect x="970.6" y="344.4" fill="#00AEEF" width="50.4" height="2.4"/>
		</g>
	</g>
	<g id="Shape_1_copy_201">
		<g>
			<rect x="745.7" y="154.6" fill="#00AEEF" width="2.4" height="95.3"/>
		</g>
	</g>
	<g id="Shape_1_copy_180">
		<g>
			<rect x="676.3" y="154.3" fill="#00AEEF" width="2.4" height="24"/>
		</g>
	</g>
	<g id="Shape_1_copy_190">
		<g>
			<rect x="572.6" y="153.1" fill="#00AEEF" width="2.4" height="96.7"/>
		</g>
	</g>
	<g id="Shape_1_copy_199">
		<g>
			<rect x="676.3" y="177.8" fill="#00AEEF" width="2.4" height="72.7"/>
		</g>
	</g>
	<g id="Shape_1_copy_182">
		<g>
			<rect x="572.6" y="153.1" fill="#00AEEF" width="281.3" height="2.4"/>
		</g>
	</g>
	<g id="Shape_1_copy_183">
		<g>
			<rect x="111.8" y="733.9" fill="#00AEEF" width="2.4" height="65.3"/>
		</g>
	</g>
	<g id="Shape_1_copy_186">
		<g>
			<rect x="110.6" y="236.2" fill="#00AEEF" width="2.4" height="109.9"/>
		</g>
	</g>
	<g id="Shape_1_copy_189">
		<g>
			<rect x="206.9" y="86.6" fill="#00AEEF" width="214.8" height="2.4"/>
		</g>
	</g>
	<g id="Shape_1_copy_195">
		<g>
			<rect x="442.3" y="86.6" fill="#00AEEF" width="66.2" height="2.4"/>
		</g>
	</g>
	<g id="Shape_1_copy_196">
		<g>
			<rect x="127.2" y="86.6" fill="#00AEEF" width="44.4" height="2.4"/>
		</g>
	</g>
	<g id="Shape_1_copy_194">
		<g>
			<rect x="895.2" y="86.6" fill="#00AEEF" width="208.3" height="2.4"/>
		</g>
	</g>
	<g id="Shape_1_copy_191">
		<g>
			<rect x="1120.1" y="405.6" fill="#00AEEF" width="2.4" height="395.5"/>
		</g>
	</g>
	<g id="Shape_1_copy_144">
		<g>
			<rect x="853.9" y="153.1" fill="#00AEEF" width="209" height="2.4"/>
		</g>
	</g>
	<g id="Shape_1_copy_221">
		<g>
			<rect x="1100.2" y="710.6" fill="#00AEEF" width="1.9" height="90"/>
		</g>
	</g>
	<g id="Shape_1_copy_222">
		<g>
			<rect x="1100.2" y="495.6" fill="#00AEEF" width="1.9" height="215.5"/>
		</g>
	</g>
	<g id="Shape_1_copy_223">
		<g>
			<rect x="1100.2" y="405.6" fill="#00AEEF" width="1.9" height="91"/>
		</g>
	</g>
	<g id="Shape_1_copy_60">
		<g>
			<rect x="1030.6" y="472.1" fill="#00AEEF" width="33.4" height="2.2"/>
		</g>
	</g>
	<g id="Shape_1_copy_59">
		<g>
			<rect x="969.4" y="471.8" fill="#00AEEF" width="61.7" height="2.2"/>
		</g>
	</g>
	<g id="Shape_1_copy_61">
		<g>
			<rect x="766.1" y="250.6" fill="#00AEEF" width="2.2" height="21.6"/>
		</g>
	</g>
	<g id="Shape_1_copy_65">
		<g>
			<rect x="442.1" y="249.4" fill="#00AEEF" width="2.2" height="23.8"/>
		</g>
	</g>
	<g id="Shape_1_copy_66">
		<g>
			<rect x="398.9" y="251.5" fill="#00AEEF" width="2.2" height="21.6"/>
		</g>
	</g>
	<g id="Shape_1_copy_67">
		<g>
			<rect x="485.3" y="153.8" fill="#00AEEF" width="2.2" height="95.8"/>
		</g>
	</g>
	<g id="Shape_1_copy_71">
		<g>
			<rect x="553" y="153.1" fill="#00AEEF" width="1.9" height="64.1"/>
		</g>
	</g>
	<g id="Shape_1_copy_72">
		<g>
			<rect x="553" y="213.4" fill="#00AEEF" width="1.9" height="36"/>
		</g>
	</g>
	<g id="Shape_1_copy_73">
		<g>
			<rect x="327.6" y="154.3" fill="#00AEEF" width="1.9" height="95"/>
		</g>
	</g>
	<g id="Shape_1_copy_62">
		<g>
			<rect x="809.3" y="249.8" fill="#00AEEF" width="2.2" height="23.3"/>
		</g>
	</g>
	<g id="Shape_1_copy_64">
		<g>
			<rect x="228.7" y="271" fill="#00AEEF" width="720.7" height="2.2"/>
		</g>
	</g>
	<g id="Shape_1_copy_40">
		<g>
			<rect x="947.3" y="271" fill="#00AEEF" width="2.2" height="251.3"/>
		</g>
	</g>
	<g id="Shape_1_copy_28">
		<g>
			<rect x="254.6" y="734.6" fill="#00AEEF" width="2.4" height="107.8"/>
		</g>
	</g>
	<g id="Shape_1_copy_29">
		<g>
			<rect x="227.3" y="152.9" fill="#00AEEF" width="1.9" height="890.6"/>
		</g>
	</g>
	<g id="Stairs_1_">
		<g id="Shape_1_copy_274">
			<g>
				<rect x="167" y="840.7" fill="#00AEEF" width="42.7" height="1.2"/>
			</g>
		</g>
		<g id="Shape_1_copy_274_1_">
			<g>
				<rect x="167" y="926.9" fill="#00AEEF" width="42.7" height="1.2"/>
			</g>
		</g>
		<g id="Shape_1_copy_274_2_">
			<g>
				<rect x="167" y="840.7" fill="#00AEEF" width="1.2" height="87.4"/>
			</g>
		</g>
		<g id="Shape_1_copy_274_3_">
			<g>
				<rect x="208.6" y="840.7" fill="#00AEEF" width="1.2" height="87.4"/>
			</g>
		</g>
	</g>
	<g id="Stairs_copy_2_1_">
		<g id="Shape_1_copy_274_4_">
			<g>
				<rect x="167" y="733.7" fill="#00AEEF" width="42.7" height="1.2"/>
			</g>
		</g>
		<g id="Shape_1_copy_274_5_">
			<g>
				<rect x="167" y="819.8" fill="#00AEEF" width="42.7" height="1.2"/>
			</g>
		</g>
		<g id="Shape_1_copy_274_6_">
			<g>
				<rect x="167" y="733.7" fill="#00AEEF" width="1.2" height="87.4"/>
			</g>
		</g>
		<g id="Shape_1_copy_274_7_">
			<g>
				<rect x="208.6" y="733.7" fill="#00AEEF" width="1.2" height="87.4"/>
			</g>
		</g>
	</g>
	<g id="Stairs_copy_3_1_">
		<g id="Shape_1_copy_274_8_">
			<g>
				<rect x="167.8" y="1012.1" fill="#00AEEF" width="42.2" height="1.2"/>
			</g>
		</g>
		<g id="Shape_1_copy_274_9_">
			<g>
				<rect x="167.8" y="1044.2" fill="#00AEEF" width="42.2" height="1.2"/>
			</g>
		</g>
		<g id="Shape_1_copy_274_10_">
			<g>
				<rect x="167.8" y="1012.3" fill="#00AEEF" width="1.2" height="33.1"/>
			</g>
		</g>
		<g id="Shape_1_copy_274_11_">
			<g>
				<rect x="209.3" y="1012.1" fill="#00AEEF" width="1.2" height="33.4"/>
			</g>
		</g>
	</g>
	<g id="Shape_1_copy_172">
		<g>
			<rect x="111.8" y="733.9" fill="#00AEEF" width="2.2" height="65.3"/>
		</g>
	</g>
	<g id="Shape_1_copy_173">
		<g>
			<rect x="149.3" y="733.9" fill="#00AEEF" width="2.2" height="65.3"/>
		</g>
	</g>
	<g id="Shape_1_copy_174">
		<g>
			<rect x="111.8" y="797" fill="#00AEEF" width="37.7" height="2.2"/>
		</g>
	</g>
	<g id="Shape_1_copy_175">
		<g>
			<rect x="113" y="733.9" fill="#00AEEF" width="37.7" height="2.2"/>
		</g>
	</g>
	<g id="Shape_1_copy_176">
		<g>
			<rect x="398.9" y="936.7" fill="#00AEEF" width="2.2" height="22.3"/>
		</g>
	</g>
	<g id="Shape_1_copy_177">
		<g>
			<rect x="442.1" y="936.7" fill="#00AEEF" width="2.2" height="22.3"/>
		</g>
	</g>
	<g id="Shape_1_copy_178">
		<g>
			<rect x="766.3" y="936.7" fill="#00AEEF" width="2.2" height="22.3"/>
		</g>
	</g>
	<g id="Shape_1_copy_179">
		<g>
			<rect x="809.3" y="936.7" fill="#00AEEF" width="2.2" height="22.3"/>
		</g>
	</g>
</g>
</svg>
