<?xml version="1.0" encoding="utf-8"?>
<!-- Generator: Adobe Illustrator 19.0.1, SVG Export Plug-In . SVG Version: 6.00 Build 0)  -->
<svg version="1.1" id="Shrum_Science_Centre_Top_1_"
	 xmlns="http://www.w3.org/2000/svg" xmlns:xlink="http://www.w3.org/1999/xlink" x="0px" y="0px" viewBox="0 0 2400 1414.3"
	 enable-background="new 0 0 2400 1414.3" xml:space="preserve">
<g id="Shape_1_copy_2">
	<g>
		<rect x="290.9" y="325.7" fill="#00AEEF" width="1.9" height="220.8"/>
	</g>
</g>
<g id="Shape_1_copy_25">
	<g>
		<rect x="291.8" y="325.7" fill="#00AEEF" width="57.1" height="1.9"/>
	</g>
</g>
<g id="Shape_1_copy_26">
	<g>
		<rect x="347.5" y="299.3" fill="#00AEEF" width="1.9" height="28.3"/>
	</g>
</g>
<g id="Shape_1_copy_71">
	<g>
		<rect x="376.3" y="301.2" fill="#00AEEF" width="1.2" height="9.6"/>
	</g>
</g>
<g id="Shape_1_copy_70">
	<g>
		<polygon fill="#00AEEF" points="364.9,313 363.8,313.6 366.3,317.5 367.4,316.9 		"/>
	</g>
</g>
<g id="Shape_1_copy_68">
	<g>
		<polygon fill="#00AEEF" points="364,312.2 348.5,326.6 349.5,327.6 365,313.2 		"/>
	</g>
</g>
<g id="Shape_1_copy_69">
	<g>
		<polygon fill="#00AEEF" points="377.1,310.3 366.2,316.8 366.7,317.5 377.5,311.1 		"/>
	</g>
</g>
<g id="Shape_1_copy_27">
	<g>
		<rect x="347.5" y="299.3" fill="#00AEEF" width="81.4" height="1.9"/>
	</g>
</g>
<g id="Shape_1_copy_28">
	<g>
		<rect x="427.2" y="299.5" fill="#00AEEF" width="1.9" height="133.4"/>
	</g>
</g>
<g id="Shape_1_copy_29">
	<g>
		<rect x="427.2" y="430.3" fill="#00AEEF" width="1.9" height="114.7"/>
	</g>
</g>
<g id="Rectangle_19">
	<g>
		<rect x="426.2" y="296.6" fill="#00AEEF" width="2.9" height="4.6"/>
	</g>
</g>
<g id="Shape_1_copy_33">
	<g>
		<rect x="291.1" y="421.4" fill="#00AEEF" width="16.8" height="1.9"/>
	</g>
</g>
<g id="Shape_1_copy_39">
	<g>
		<rect x="270.5" y="299.3" fill="#00AEEF" width="24.2" height="1.7"/>
	</g>
</g>
<g id="Shape_1_copy_140">
	<g>
		<rect x="781" y="520.1" fill="#00AEEF" width="1.9" height="57.1"/>
	</g>
</g>
<g id="Shape_1_copy_146">
	<g>
		<rect x="927.8" y="520.1" fill="#00AEEF" width="1.9" height="57.1"/>
	</g>
</g>
<g id="Shape_1_copy_156">
	<g>
		<rect x="966.5" y="520.1" fill="#00AEEF" width="1.9" height="187.4"/>
	</g>
</g>
<g id="Shape_1_copy_157">
	<g>
		<rect x="1147" y="576.2" fill="#00AEEF" width="1.9" height="131.3"/>
	</g>
</g>
<g id="Shape_1_copy_158">
	<g>
		<rect x="1128.5" y="519.4" fill="#00AEEF" width="1.9" height="57.6"/>
	</g>
</g>
<g id="Shape_1_copy_159">
	<g>
		<rect x="967.2" y="576.2" fill="#00AEEF" width="181.2" height="1.9"/>
	</g>
</g>
<g id="Shape_1_copy_160">
	<g>
		<rect x="967.2" y="705.6" fill="#00AEEF" width="181.2" height="1.9"/>
	</g>
</g>
<g id="Shape_1_copy_161">
	<g>
		<rect x="1236.7" y="325.2" fill="#00AEEF" width="205.9" height="1.9"/>
	</g>
</g>
<g id="Shape_1_copy_165">
	<g>
		<rect x="1478.6" y="401.3" fill="#00AEEF" width="505.7" height="1.9"/>
	</g>
</g>
<g id="Shape_1_copy_192">
	<g>
		<rect x="1551.4" y="335.3" fill="#00AEEF" width="721.2" height="1.9"/>
	</g>
</g>
<g id="Shape_1_copy_196">
	<g>
		<rect x="1835.3" y="255.8" fill="#00AEEF" width="337.2" height="1.9"/>
	</g>
</g>
<g id="Shape_1_copy_210">
	<g>
		<rect x="1835.5" y="255.6" fill="#00AEEF" width="1.9" height="81.6"/>
	</g>
</g>
<g id="Shape_1_copy_217">
	<g>
		<rect x="2170.6" y="255.8" fill="#00AEEF" width="1.9" height="81.6"/>
	</g>
</g>
<g id="Shape_1_copy_200">
	<g>
		<rect x="1983.4" y="401.3" fill="#00AEEF" width="1.9" height="31"/>
	</g>
</g>
<g id="Shape_1_copy_202">
	<g>
		<rect x="1983.4" y="430.3" fill="#00AEEF" width="9.8" height="1.9"/>
	</g>
</g>
<g id="Shape_1_copy_203">
	<g>
		<rect x="2014.6" y="430.3" fill="#00AEEF" width="9.8" height="1.9"/>
	</g>
</g>
<g id="Shape_1_copy_204">
	<g>
		<rect x="2024.2" y="401" fill="#00AEEF" width="148.3" height="1.9"/>
	</g>
</g>
<g id="Shape_1_copy_223">
	<g>
		<rect x="2171.5" y="427.2" fill="#00AEEF" width="106.8" height="1.9"/>
	</g>
</g>
<g id="Shape_1_copy_205">
	<g>
		<rect x="1989.8" y="431.3" fill="#00AEEF" width="1.9" height="301.9"/>
	</g>
</g>
<g id="Shape_1_copy_206">
	<g>
		<rect x="2016" y="431.3" fill="#00AEEF" width="1.9" height="301"/>
	</g>
</g>
<g id="Shape_1_copy_221">
	<g>
		<rect x="2016" y="730.8" fill="#00AEEF" width="156.5" height="1.9"/>
	</g>
</g>
<g id="Shape_1_copy_222">
	<g>
		<rect x="2170.6" y="402" fill="#00AEEF" width="1.9" height="330.7"/>
	</g>
</g>
<g id="Shape_1_copy_201">
	<g>
		<rect x="2023.7" y="401" fill="#00AEEF" width="1.9" height="31.2"/>
	</g>
</g>
<g id="Rectangle_20">
	<g>
		<rect x="1988.6" y="425.8" fill="#00AEEF" width="4.6" height="4.6"/>
	</g>
</g>
<g id="Rectangle_20_copy">
	<g>
		<rect x="2014.6" y="425.8" fill="#00AEEF" width="4.6" height="4.6"/>
	</g>
</g>
<g id="Shape_1_copy_188">
	<g>
		<rect x="1478.6" y="711.1" fill="#00AEEF" width="188.9" height="1.9"/>
	</g>
</g>
<g id="Shape_1_copy_189">
	<g>
		<rect x="1666.1" y="711.1" fill="#00AEEF" width="1.9" height="33.4"/>
	</g>
</g>
<g id="Shape_1_copy_213">
	<g>
		<rect x="1835.3" y="731.3" fill="#00AEEF" width="1.9" height="13.7"/>
	</g>
	<g>
		<path fill="#00AEEF" d="M1835.8,732.4h-0.5v2h0.5V732.4L1835.8,732.4z M1835.8,735.4h-0.5v2h0.5V735.4L1835.8,735.4z
			 M1835.8,738.4h-0.5v2h0.5V738.4L1835.8,738.4z M1835.8,741.4h-0.5v2h0.5V741.4L1835.8,741.4z M1835.8,744.4h-0.5v0.6h0.5l0,0l0,0
			l0,0l0,0c0.4,0,0.9,0,0.9,0v-0.5h-0.9V744.4L1835.8,744.4z M1837.2,742.5h-0.5v2h0.5V742.5L1837.2,742.5z M1837.2,739.5h-0.5v2
			h0.5V739.5L1837.2,739.5z M1837.2,736.5h-0.5v2h0.5V736.5L1837.2,736.5z M1837.2,733.5h-0.5v2h0.5V733.5L1837.2,733.5z
			 M1837.2,731.3h-1.9v0.5h1.4v0.7h0.5V731.3L1837.2,731.3z"/>
	</g>
</g>
<g id="Shape_1_copy_214">
	<g>
		<rect x="1835.3" y="731.3" fill="#00AEEF" width="156.5" height="1.9"/>
	</g>
	<g>
		<path fill="#00AEEF" d="M1988.8,731.3h-2v0.5h2V731.3L1988.8,731.3z M1985.8,731.3h-2v0.5h2V731.3L1985.8,731.3z M1982.8,731.3h-2
			v0.5h2V731.3L1982.8,731.3z M1979.8,731.3h-2v0.5h2V731.3L1979.8,731.3z M1976.8,731.3h-2v0.5h2V731.3L1976.8,731.3z
			 M1973.8,731.3h-2v0.5h2V731.3L1973.8,731.3z M1970.8,731.3h-2v0.5h2V731.3L1970.8,731.3z M1967.8,731.3h-2v0.5h2V731.3
			L1967.8,731.3z M1964.8,731.3h-2v0.5h2V731.3L1964.8,731.3z M1961.8,731.3h-2v0.5h2V731.3L1961.8,731.3z M1958.8,731.3h-2v0.5h2
			V731.3L1958.8,731.3z M1955.8,731.3h-2v0.5h2V731.3L1955.8,731.3z M1952.8,731.3h-2v0.5h2V731.3L1952.8,731.3z M1949.8,731.3h-2
			v0.5h2V731.3L1949.8,731.3z M1946.8,731.3h-2v0.5h2V731.3L1946.8,731.3z M1943.8,731.3h-2v0.5h2V731.3L1943.8,731.3z
			 M1940.8,731.3h-2v0.5h2V731.3L1940.8,731.3z M1937.8,731.3h-2v0.5h2V731.3L1937.8,731.3z M1934.8,731.3h-2v0.5h2V731.3
			L1934.8,731.3z M1931.8,731.3h-2v0.5h2V731.3L1931.8,731.3z M1928.8,731.3h-2v0.5h2V731.3L1928.8,731.3z M1925.8,731.3h-2v0.5h2
			V731.3L1925.8,731.3z M1922.8,731.3h-2v0.5h2V731.3L1922.8,731.3z M1919.8,731.3h-2v0.5h2V731.3L1919.8,731.3z M1916.8,731.3h-2
			v0.5h2V731.3L1916.8,731.3z M1913.8,731.3h-2v0.5h2V731.3L1913.8,731.3z M1910.8,731.3h-2v0.5h2V731.3L1910.8,731.3z
			 M1907.8,731.3h-2v0.5h2V731.3L1907.8,731.3z M1904.8,731.3h-2v0.5h2V731.3L1904.8,731.3z M1901.8,731.3h-2v0.5h2V731.3
			L1901.8,731.3z M1898.8,731.3h-2v0.5h2V731.3L1898.8,731.3z M1895.8,731.3h-2v0.5h2V731.3L1895.8,731.3z M1892.8,731.3h-2v0.5h2
			V731.3L1892.8,731.3z M1889.8,731.3h-2v0.5h2V731.3L1889.8,731.3z M1886.8,731.3h-2v0.5h2V731.3L1886.8,731.3z M1883.8,731.3h-2
			v0.5h2V731.3L1883.8,731.3z M1880.8,731.3h-2v0.5h2V731.3L1880.8,731.3z M1877.8,731.3h-2v0.5h2V731.3L1877.8,731.3z
			 M1874.8,731.3h-2v0.5h2V731.3L1874.8,731.3z M1871.8,731.3h-2v0.5h2V731.3L1871.8,731.3z M1868.8,731.3h-2v0.5h2V731.3
			L1868.8,731.3z M1865.8,731.3h-2v0.5h2V731.3L1865.8,731.3z M1862.8,731.3h-2v0.5h2V731.3L1862.8,731.3z M1859.8,731.3h-2v0.5h2
			V731.3L1859.8,731.3z M1856.8,731.3h-2v0.5h2V731.3L1856.8,731.3z M1853.8,731.3h-2v0.5h2V731.3L1853.8,731.3z M1850.8,731.3h-2
			v0.5h2V731.3L1850.8,731.3z M1847.8,731.3h-2v0.5h2V731.3L1847.8,731.3z M1844.8,731.3h-2v0.5h2V731.3L1844.8,731.3z
			 M1841.8,731.3h-2v0.5h2V731.3L1841.8,731.3z M1838.8,731.3h-2v0.5h2V731.3L1838.8,731.3z M1835.8,731.3h-0.5v0.5l0,0
			c0,0.4,0,1,0,1h0.5V731.3L1835.8,731.3z M1837.9,732.7h-2v0.5h2V732.7L1837.9,732.7z M1840.9,732.7h-2v0.5h2V732.7L1840.9,732.7z
			 M1843.9,732.7h-2v0.5h2V732.7L1843.9,732.7z M1846.9,732.7h-2v0.5h2V732.7L1846.9,732.7z M1849.9,732.7h-2v0.5h2V732.7
			L1849.9,732.7z M1852.9,732.7h-2v0.5h2V732.7L1852.9,732.7z M1855.9,732.7h-2v0.5h2V732.7L1855.9,732.7z M1858.9,732.7h-2v0.5h2
			V732.7L1858.9,732.7z M1861.9,732.7h-2v0.5h2V732.7L1861.9,732.7z M1864.9,732.7h-2v0.5h2V732.7L1864.9,732.7z M1867.9,732.7h-2
			v0.5h2V732.7L1867.9,732.7z M1870.9,732.7h-2v0.5h2V732.7L1870.9,732.7z M1873.9,732.7h-2v0.5h2V732.7L1873.9,732.7z
			 M1876.9,732.7h-2v0.5h2V732.7L1876.9,732.7z M1879.9,732.7h-2v0.5h2V732.7L1879.9,732.7z M1882.9,732.7h-2v0.5h2V732.7
			L1882.9,732.7z M1885.9,732.7h-2v0.5h2V732.7L1885.9,732.7z M1888.9,732.7h-2v0.5h2V732.7L1888.9,732.7z M1891.9,732.7h-2v0.5h2
			V732.7L1891.9,732.7z M1894.9,732.7h-2v0.5h2V732.7L1894.9,732.7z M1897.9,732.7h-2v0.5h2V732.7L1897.9,732.7z M1900.9,732.7h-2
			v0.5h2V732.7L1900.9,732.7z M1903.9,732.7h-2v0.5h2V732.7L1903.9,732.7z M1906.9,732.7h-2v0.5h2V732.7L1906.9,732.7z
			 M1909.9,732.7h-2v0.5h2V732.7L1909.9,732.7z M1912.9,732.7h-2v0.5h2V732.7L1912.9,732.7z M1915.9,732.7h-2v0.5h2V732.7
			L1915.9,732.7z M1918.9,732.7h-2v0.5h2V732.7L1918.9,732.7z M1921.9,732.7h-2v0.5h2V732.7L1921.9,732.7z M1924.9,732.7h-2v0.5h2
			V732.7L1924.9,732.7z M1927.9,732.7h-2v0.5h2V732.7L1927.9,732.7z M1930.9,732.7h-2v0.5h2V732.7L1930.9,732.7z M1933.9,732.7h-2
			v0.5h2V732.7L1933.9,732.7z M1936.9,732.7h-2v0.5h2V732.7L1936.9,732.7z M1939.9,732.7h-2v0.5h2V732.7L1939.9,732.7z
			 M1942.9,732.7h-2v0.5h2V732.7L1942.9,732.7z M1945.9,732.7h-2v0.5h2V732.7L1945.9,732.7z M1948.9,732.7h-2v0.5h2V732.7
			L1948.9,732.7z M1951.9,732.7h-2v0.5h2V732.7L1951.9,732.7z M1954.9,732.7h-2v0.5h2V732.7L1954.9,732.7z M1957.9,732.7h-2v0.5h2
			V732.7L1957.9,732.7z M1960.9,732.7h-2v0.5h2V732.7L1960.9,732.7z M1963.9,732.7h-2v0.5h2V732.7L1963.9,732.7z M1966.9,732.7h-2
			v0.5h2V732.7L1966.9,732.7z M1969.9,732.7h-2v0.5h2V732.7L1969.9,732.7z M1972.9,732.7h-2v0.5h2V732.7L1972.9,732.7z
			 M1975.9,732.7h-2v0.5h2V732.7L1975.9,732.7z M1978.9,732.7h-2v0.5h2V732.7L1978.9,732.7z M1981.9,732.7h-2v0.5h2V732.7
			L1981.9,732.7z M1984.9,732.7h-2v0.5h2V732.7L1984.9,732.7z M1987.9,732.7h-2v0.5h2V732.7L1987.9,732.7z M1990.9,732.7h-2v0.5h2
			V732.7L1990.9,732.7z M1991.8,731.3h-2v0.5h1.5v1.3h0.5V731.3L1991.8,731.3z"/>
	</g>
</g>
<g id="Shape_1_copy_187">
	<g>
		<rect x="1478.6" y="403.2" fill="#00AEEF" width="1.9" height="309.6"/>
	</g>
</g>
<g id="Shape_1_copy_190">
	<g>
		<rect x="1835.3" y="403.2" fill="#00AEEF" width="1.9" height="330"/>
	</g>
</g>
<g id="Shape_1_copy_218">
	<g>
		<rect x="1681.4" y="425" fill="#00AEEF" width="1.9" height="89.3"/>
	</g>
</g>
<g id="Shape_1_copy_224">
	<g>
		<rect x="1603.7" y="577.4" fill="#00AEEF" width="1.9" height="134.6"/>
	</g>
</g>
<g id="Shape_1_copy_225">
	<g>
		<rect x="1645.9" y="512.6" fill="#00AEEF" width="1.9" height="66.5"/>
	</g>
</g>
<g id="Shape_1_copy_226">
	<g>
		<rect x="1603.7" y="577.2" fill="#00AEEF" width="43.2" height="1.9"/>
	</g>
</g>
<g id="Shape_1_copy_219">
	<g>
		<rect x="1681.4" y="424.8" fill="#00AEEF" width="155" height="1.9"/>
	</g>
</g>
<g id="Shape_1_copy_220">
	<g>
		<rect x="1479.6" y="512.4" fill="#00AEEF" width="202.8" height="1.9"/>
	</g>
</g>
<g id="Shape_1_copy_191">
	<g>
		<rect x="1666.1" y="743" fill="#00AEEF" width="171.1" height="1.9"/>
	</g>
</g>
<g id="Shape_1_copy_164">
	<g>
		<rect x="1432.8" y="381.8" fill="#00AEEF" width="1.9" height="65.5"/>
	</g>
</g>
<g id="Shape_1_copy_169">
	<g>
		<rect x="1310.9" y="339.8" fill="#00AEEF" width="1.9" height="151.7"/>
	</g>
</g>
<g id="Shape_1_copy_175">
	<g>
		<rect x="1440.7" y="381.8" fill="#00AEEF" width="1.9" height="95"/>
	</g>
</g>
<g id="Shape_1_copy_185">
	<g>
		<rect x="1433" y="381.1" fill="#00AEEF" width="9.6" height="1.9"/>
	</g>
</g>
<g id="Shape_1_copy_176">
	<g>
		<rect x="1310.9" y="449.5" fill="#00AEEF" width="1.9" height="64.8"/>
	</g>
</g>
<g id="Shape_1_copy_178">
	<g>
		<rect x="1443.6" y="577" fill="#00AEEF" width="1.9" height="135.1"/>
	</g>
</g>
<g id="Shape_1_copy_179">
	<g>
		<rect x="1250.9" y="577.4" fill="#00AEEF" width="1.9" height="134.6"/>
	</g>
</g>
<g id="Shape_1_copy_186">
	<g>
		<rect x="1147" y="577.4" fill="#00AEEF" width="103.9" height="1.9"/>
	</g>
</g>
<g id="Shape_1_copy_180">
	<g>
		<rect x="1250.9" y="710.9" fill="#00AEEF" width="194.6" height="1.9"/>
	</g>
</g>
<g id="Shape_1_copy_181">
	<g>
		<rect x="1250.9" y="577.4" fill="#00AEEF" width="18.2" height="1.9"/>
	</g>
</g>
<g id="Shape_1_copy_170">
	<g>
		<rect x="1268.2" y="514.3" fill="#00AEEF" width="1.9" height="64.1"/>
	</g>
</g>
<g id="Shape_1_copy_171">
	<g>
		<rect x="1443.6" y="514.3" fill="#00AEEF" width="1.9" height="64.1"/>
	</g>
</g>
<g id="Shape_1_copy_172">
	<g>
		<rect x="1268.2" y="513.4" fill="#00AEEF" width="177.4" height="1.9"/>
	</g>
</g>
<g id="Shape_1_copy_173">
	<g>
		<rect x="1268.2" y="577.4" fill="#00AEEF" width="177.4" height="1.9"/>
	</g>
</g>
<g id="Shape_1_copy_174">
	<g>
		<rect x="1337.8" y="491.3" fill="#00AEEF" width="1.9" height="23.5"/>
	</g>
</g>
<g id="Shape_1_copy_166">
	<g>
		<rect x="1432.8" y="446.4" fill="#00AEEF" width="9.1" height="1.9"/>
	</g>
</g>
<g id="Shape_1_copy_167">
	<g>
		<rect x="1440.7" y="446.4" fill="#00AEEF" width="1.9" height="45.1"/>
	</g>
</g>
<g id="Shape_1_copy_168">
	<g>
		<rect x="1311.8" y="489.6" fill="#00AEEF" width="129.6" height="1.9"/>
	</g>
</g>
<g id="Shape_1_copy_162">
	<g>
		<rect x="1236.7" y="339.8" fill="#00AEEF" width="155.5" height="1.9"/>
	</g>
</g>
<g id="Shape_1_copy_163">
	<g>
		
			<rect x="1412" y="331.4" transform="matrix(0.6998 -0.7143 0.7143 0.6998 165.9999 1117.6522)" fill="#00AEEF" width="1.6" height="59.9"/>
	</g>
</g>
<g id="Shape_1_copy_141">
	<g>
		<rect x="749.8" y="576.2" fill="#00AEEF" width="1.9" height="131"/>
	</g>
</g>
<g id="Shape_1_copy_142">
	<g>
		<rect x="885.8" y="576.2" fill="#00AEEF" width="1.9" height="131"/>
	</g>
</g>
<g id="Shape_1_copy_143">
	<g>
		<rect x="935.5" y="576.2" fill="#00AEEF" width="1.9" height="131"/>
	</g>
</g>
<g id="Shape_1_copy_144">
	<g>
		<rect x="749.8" y="576.2" fill="#00AEEF" width="187.4" height="1.9"/>
	</g>
</g>
<g id="Shape_1_copy_145">
	<g>
		<rect x="749.8" y="705.6" fill="#00AEEF" width="187.4" height="1.9"/>
	</g>
</g>
<g id="Shape_1_copy_117">
	<g>
		<rect x="937" y="348.7" fill="#00AEEF" width="30.2" height="2.2"/>
	</g>
</g>
<g id="Shape_1_copy_118">
	<g>
		<rect x="644.2" y="577.2" fill="#00AEEF" width="2.2" height="129.8"/>
	</g>
</g>
<g id="Shape_1_copy_121">
	<g>
		<rect x="664.8" y="323.3" fill="#00AEEF" width="101.3" height="2.2"/>
	</g>
</g>
<g id="Shape_1_copy_47">
	<g>
		<rect x="336" y="414.5" fill="#00AEEF" width="92.2" height="1.7"/>
	</g>
</g>
<g id="Shape_1_copy_123">
	<g>
		
			<rect x="306.4" y="418" transform="matrix(0.9747 -0.2234 0.2234 0.9747 -85.3916 82.5087)" fill="#00AEEF" width="31.3" height="1.4"/>
	</g>
</g>
<g id="Shape_1_copy_57">
	<g>
		<rect x="314.2" y="544.3" fill="#00AEEF" width="1.4" height="35"/>
	</g>
</g>
<g id="Shape_1_copy_77">
	<g>
		<rect x="414.2" y="547" fill="#00AEEF" width="1.9" height="35"/>
	</g>
</g>
<g id="Shape_1_copy_58">
	<g>
		<rect x="291.8" y="544.1" fill="#00AEEF" width="137.3" height="2.4"/>
	</g>
</g>
<g id="Shape_1_copy_59">
	<g>
		<rect x="353.5" y="580.8" fill="#00AEEF" width="75.1" height="2.4"/>
	</g>
</g>
<g id="Shape_1_copy_60">
	<g>
		<rect x="307.2" y="580.8" fill="#00AEEF" width="35.8" height="2.4"/>
	</g>
</g>
<g id="Rectangle_14">
	<g>
		<rect x="305.8" y="582" fill="#00AEEF" width="1.4" height="7.7"/>
	</g>
</g>
<g id="Rectangle_15">
	<g>
		<rect x="296.6" y="588.5" fill="#00AEEF" width="9.4" height="0.7"/>
	</g>
</g>
<g id="Rectangle_16">
	<g>
		<rect x="289" y="589.2" fill="#00AEEF" width="18.2" height="1"/>
	</g>
</g>
<g id="Rectangle_8">
	<g>
		<rect x="341.3" y="582.5" fill="#00AEEF" width="1.7" height="8.6"/>
	</g>
</g>
<g id="Rectangle_9">
	<g>
		<rect x="341.3" y="580.8" fill="#00AEEF" width="14.2" height="1.4"/>
	</g>
</g>
<g id="Rectangle_10">
	<g>
		<rect x="353.5" y="583" fill="#00AEEF" width="0.7" height="8.9"/>
	</g>
</g>
<g id="Rectangle_10_copy">
	<g>
		<rect x="339.8" y="583" fill="#00AEEF" width="0.7" height="36.7"/>
	</g>
</g>
<g id="Rectangle_10_copy_5">
	<g>
		<rect x="339.8" y="619" fill="#00AEEF" width="64.6" height="0.7"/>
	</g>
</g>
<g id="Rectangle_12">
	<g>
		<rect x="291.4" y="579.1" fill="#00AEEF" width="5.3" height="10.1"/>
	</g>
</g>
<g id="Rectangle_13">
	<g>
		<rect x="296.2" y="579.1" fill="#00AEEF" width="19.4" height="3.1"/>
	</g>
</g>
<g id="Rectangle_10_copy_4">
	<g>
		<rect x="403.7" y="583" fill="#00AEEF" width="0.7" height="123.6"/>
	</g>
</g>
<g id="Rectangle_11">
	<g>
		<rect x="341.3" y="590.9" fill="#00AEEF" width="13" height="1"/>
	</g>
</g>
<g id="Shape_1_copy_63">
	<g>
		<rect x="457.9" y="576.2" fill="#00AEEF" width="214.3" height="2.4"/>
	</g>
</g>
<g id="Shape_1_copy_80">
	<g>
		<rect x="669.8" y="518.4" fill="#00AEEF" width="2.4" height="58.8"/>
	</g>
</g>
<g id="Shape_1_copy_40">
	<g>
		<rect x="660" y="484.1" fill="#00AEEF" width="1.9" height="33.6"/>
	</g>
</g>
<g id="Shape_1_copy_62">
	<g>
		<polygon fill="#00AEEF" points="664.1,469.9 660,484.1 661.9,484.6 666,470.4 		"/>
	</g>
</g>
<g id="Shape_1_copy_3">
	<g>
		<rect x="270" y="299.3" fill="#00AEEF" width="1.9" height="407.3"/>
	</g>
</g>
<g id="Shape_1_copy_67">
	<g>
		<rect x="292.8" y="299.3" fill="#00AEEF" width="2.9" height="26.4"/>
	</g>
</g>
<g id="Shape_1_copy_122">
	<g>
		<rect x="293.5" y="299.3" fill="#00AEEF" width="56.4" height="1.4"/>
	</g>
</g>
<g id="Shape_1_copy_61">
	<g>
		<rect x="289" y="589.4" fill="#00AEEF" width="1.9" height="117.6"/>
	</g>
</g>
<g id="Shape_1_copy_64">
	<g>
		<rect x="270" y="705.6" fill="#00AEEF" width="158.4" height="1.7"/>
	</g>
</g>
<g id="Shape_1_copy_65">
	<g>
		<rect x="426.5" y="581.5" fill="#00AEEF" width="2.2" height="125.5"/>
	</g>
</g>
<g id="Shape_1_copy_81">
	<g>
		<rect x="457.9" y="578.6" fill="#00AEEF" width="1.9" height="129.4"/>
	</g>
</g>
<g id="Shape_1_copy_82">
	<g>
		<rect x="459.4" y="706.6" fill="#00AEEF" width="187" height="1.7"/>
	</g>
</g>
<g id="C9001_1_">
	<g id="Shape_1_copy_30">
		<g>
			<rect x="459.4" y="299.3" fill="#00AEEF" width="205" height="1.9"/>
		</g>
	</g>
	<g id="Shape_1_copy_66">
		<g>
			<rect x="457.9" y="299.5" fill="#00AEEF" width="1.9" height="277.9"/>
		</g>
	</g>
	<g id="Shape_1_copy_79">
		<g>
			<rect x="459.4" y="516.7" fill="#00AEEF" width="212.9" height="1.9"/>
		</g>
	</g>
	<g id="Shape_1_copy_78">
		<g>
			<rect x="663.8" y="299.5" fill="#00AEEF" width="2.2" height="170.9"/>
		</g>
	</g>
	<g id="Rectangle_19_copy">
		<g>
			<rect x="457.9" y="296.6" fill="#00AEEF" width="2.9" height="4.6"/>
		</g>
	</g>
	<g id="Rectangle_19_copy_2">
		<g>
			<rect x="663.1" y="296.6" fill="#00AEEF" width="2.9" height="4.6"/>
		</g>
	</g>
</g>
<g id="Generic_Lecture_Hall_1_">
	<g id="Shape_1_copy_30_1_">
		<g>
			<rect x="767" y="325.9" fill="#00AEEF" width="169.7" height="1.7"/>
		</g>
	</g>
	<g id="Shape_1_copy_66_1_">
		<g>
			<rect x="765.8" y="326.1" fill="#00AEEF" width="1.6" height="194.5"/>
		</g>
	</g>
	<g id="Shape_1_copy_79_1_">
		<g>
			<rect x="767" y="518.9" fill="#00AEEF" width="170.9" height="1.7"/>
		</g>
	</g>
	<g id="Shape_1_copy_78_1_">
		<g>
			<rect x="936.3" y="326.1" fill="#00AEEF" width="1.8" height="193.6"/>
		</g>
	</g>
	<g id="Rectangle_19_copy_1_">
		<g>
			<rect x="765.8" y="323.5" fill="#00AEEF" width="2.4" height="4"/>
		</g>
	</g>
	<g id="Rectangle_19_copy_2_1_">
		<g>
			<rect x="935.7" y="323.5" fill="#00AEEF" width="2.4" height="4"/>
		</g>
	</g>
</g>
<g id="Generic_Lecture_Hall_copy_1_">
	<g id="Shape_1_copy_30_2_">
		<g>
			<rect x="967.7" y="325.9" fill="#00AEEF" width="169.7" height="1.7"/>
		</g>
	</g>
	<g id="Shape_1_copy_66_2_">
		<g>
			<rect x="966.5" y="326.1" fill="#00AEEF" width="1.6" height="194.5"/>
		</g>
	</g>
	<g id="Shape_1_copy_79_2_">
		<g>
			<rect x="967.7" y="518.9" fill="#00AEEF" width="170.9" height="1.7"/>
		</g>
	</g>
	<g id="Shape_1_copy_78_2_">
		<g>
			<rect x="1137" y="326.1" fill="#00AEEF" width="1.8" height="193.6"/>
		</g>
	</g>
	<g id="Rectangle_19_copy_2_">
		<g>
			<rect x="966.5" y="323.5" fill="#00AEEF" width="2.4" height="4"/>
		</g>
	</g>
	<g id="Rectangle_19_copy_2_2_">
		<g>
			<rect x="1136.4" y="323.5" fill="#00AEEF" width="2.4" height="4"/>
		</g>
	</g>
</g>
</svg>
